<svg xmlns="http://www.w3.org/2000/svg" xmlns:xlink="http://www.w3.org/1999/xlink" viewBox="0 0 256.41 50"><defs><style>.cls-1{fill:#1a1a1a;}.cls-2{fill:url(#名称未設定グラデーション_26);}</style><linearGradient id="名称未設定グラデーション_26" x1="32.65" y1="52.66" x2="17.67" y2="-1.52" gradientUnits="userSpaceOnUse"><stop offset="0" stop-color="#5cc793"/><stop offset="0.82" stop-color="#6edda6"/></linearGradient></defs><title>logo</title><g id="レイヤー_2" data-name="レイヤー 2"><g id="レイヤー_1-2" data-name="レイヤー 1"><path class="cls-1" d="M75,19.69l6.8.78A9.59,9.59,0,0,1,80,24.15a8.65,8.65,0,0,1-3.28,2.42,12.94,12.94,0,0,1-5.07.86,18.65,18.65,0,0,1-4.95-.56,8.6,8.6,0,0,1-3.4-1.79,9,9,0,0,1-2.23-2.9,10.25,10.25,0,0,1-.81-4.43,10.54,10.54,0,0,1,1-4.8,8.71,8.71,0,0,1,2-2.51,8.85,8.85,0,0,1,2.57-1.66,14.07,14.07,0,0,1,5.36-.87q4.57,0,7,1.64a8.64,8.64,0,0,1,3.37,4.78l-6.74.9a3.07,3.07,0,0,0-1.15-1.8,3.7,3.7,0,0,0-2.24-.61,3.6,3.6,0,0,0-2.87,1.27,5.73,5.73,0,0,0-1.1,3.85,5,5,0,0,0,1.09,3.49,3.57,3.57,0,0,0,2.77,1.2,3.84,3.84,0,0,0,2.37-.72A4.24,4.24,0,0,0,75,19.69Z"/><path class="cls-1" d="M92.35,14.38l-6.83-.72a7.72,7.72,0,0,1,1.11-2.82,6.24,6.24,0,0,1,2.1-1.78,8.66,8.66,0,0,1,2.71-.85,21.77,21.77,0,0,1,3.73-.3,29.43,29.43,0,0,1,5.16.37,6.62,6.62,0,0,1,3.25,1.5A5.35,5.35,0,0,1,105,12a8.14,8.14,0,0,1,.52,2.77V23a10.06,10.06,0,0,0,.17,2.07,9.34,9.34,0,0,0,.73,1.9H99.74a6.76,6.76,0,0,1-.53-1.09A8.33,8.33,0,0,1,99,24.72a9.25,9.25,0,0,1-2.79,1.93,11.57,11.57,0,0,1-4.41.78,7.42,7.42,0,0,1-5.08-1.55A4.92,4.92,0,0,1,85,22.07a5,5,0,0,1,1.25-3.5q1.24-1.38,4.61-2,4-.81,5.22-1.14a23.52,23.52,0,0,0,2.53-.85A2.47,2.47,0,0,0,98,12.7a2.68,2.68,0,0,0-1.91-.53,5,5,0,0,0-2.64.56A3.08,3.08,0,0,0,92.35,14.38Zm6.21,3.77c-1,.35-2,.66-3.08.93a7,7,0,0,0-2.76,1.14,1.83,1.83,0,0,0,0,2.7,2.49,2.49,0,0,0,1.73.53,4.44,4.44,0,0,0,2.23-.58,3.49,3.49,0,0,0,1.46-1.41,4.71,4.71,0,0,0,.43-2.17Z"/><path class="cls-1" d="M110.62,8.34h6.68v2.72a9.22,9.22,0,0,1,2.91-2.42,8,8,0,0,1,3.55-.73,6.71,6.71,0,0,1,3.53.8,5.82,5.82,0,0,1,2.13,2.35,10.8,10.8,0,0,1,3.08-2.49,7.9,7.9,0,0,1,3.42-.66,6.16,6.16,0,0,1,4.69,1.79q1.68,1.79,1.68,5.58V27h-7.17V16.37a3,3,0,0,0-.49-1.88,2.15,2.15,0,0,0-1.79-1,2.52,2.52,0,0,0-2,.92,4.53,4.53,0,0,0-.77,2.93V27h-7.17V16.72a6.64,6.64,0,0,0-.14-1.67,2.26,2.26,0,0,0-.8-1.13,2.07,2.07,0,0,0-1.32-.43,2.56,2.56,0,0,0-2,.93,4.7,4.7,0,0,0-.79,3.06V27h-7.17Z"/><path class="cls-1" d="M167.29,19.45H152.94a4.58,4.58,0,0,0,.94,2.56,3.38,3.38,0,0,0,2.7,1.22,4.11,4.11,0,0,0,2-.53,4.73,4.73,0,0,0,1.24-1.18l7,.65a10,10,0,0,1-3.9,4,14.09,14.09,0,0,1-6.56,1.23,13.36,13.36,0,0,1-5.83-1.05,8.62,8.62,0,0,1-3.53-3.32,10,10,0,0,1-1.39-5.35,9.41,9.41,0,0,1,2.8-7.09,10.7,10.7,0,0,1,7.74-2.71,13.72,13.72,0,0,1,6.33,1.22,8.22,8.22,0,0,1,3.54,3.51,13,13,0,0,1,1.21,6ZM160,16a4.75,4.75,0,0,0-1.12-3,3.49,3.49,0,0,0-5.1.45A5,5,0,0,0,153,16Z"/><path class="cls-1" d="M171.37,8.34h6.69V11.4a7.3,7.3,0,0,1,2-2.74,4.18,4.18,0,0,1,2.54-.75,7.51,7.51,0,0,1,3.46,1L183.85,14a5.74,5.74,0,0,0-2-.53,2.48,2.48,0,0,0-2.18,1.16q-1.11,1.63-1.11,6.12V27h-7.18Z"/><path class="cls-1" d="M194.51,14.38l-6.83-.72a7.72,7.72,0,0,1,1.11-2.82,6.24,6.24,0,0,1,2.1-1.78,8.66,8.66,0,0,1,2.71-.85,21.77,21.77,0,0,1,3.73-.3,29.63,29.63,0,0,1,5.17.37,6.66,6.66,0,0,1,3.25,1.5A5.24,5.24,0,0,1,207.19,12a8.16,8.16,0,0,1,.53,2.77V23a10.18,10.18,0,0,0,.16,2.07,9.34,9.34,0,0,0,.73,1.9H201.9a6.76,6.76,0,0,1-.53-1.09,10,10,0,0,1-.25-1.19,9.13,9.13,0,0,1-2.79,1.93,11.57,11.57,0,0,1-4.41.78,7.37,7.37,0,0,1-5.07-1.55,4.9,4.9,0,0,1-1.74-3.81,5,5,0,0,1,1.25-3.5q1.24-1.38,4.61-2,4-.81,5.22-1.14a22.81,22.81,0,0,0,2.53-.85,2.47,2.47,0,0,0-.55-1.84,2.68,2.68,0,0,0-1.91-.53,5,5,0,0,0-2.64.56A3.19,3.19,0,0,0,194.51,14.38Zm6.21,3.77c-1,.35-2,.66-3.08.93a7,7,0,0,0-2.76,1.14,1.83,1.83,0,0,0-.59,1.32,1.77,1.77,0,0,0,.59,1.38,2.46,2.46,0,0,0,1.73.53,4.43,4.43,0,0,0,2.22-.58,3.44,3.44,0,0,0,1.46-1.41,4.71,4.71,0,0,0,.43-2.17Z"/><path class="cls-1" d="M212.76,1.24H220v8.92a7,7,0,0,1,2.44-1.68,7.72,7.72,0,0,1,3-.57,7.3,7.3,0,0,1,5.65,2.46c1.48,1.63,2.23,4,2.23,7a13.27,13.27,0,0,1-1,5.38,7.6,7.6,0,0,1-2.82,3.49,7.63,7.63,0,0,1-7.45.34,8.9,8.9,0,0,1-2.56-2.38V27h-6.7Zm7.17,16.38a5.38,5.38,0,0,0,.91,3.49,2.86,2.86,0,0,0,2.29,1.08,2.67,2.67,0,0,0,2.15-1.07,5.68,5.68,0,0,0,.87-3.57,5.06,5.06,0,0,0-.85-3.25,2.57,2.57,0,0,0-2.06-1,3,3,0,0,0-2.39,1.08A5,5,0,0,0,219.93,17.62Z"/><path class="cls-1" d="M256.41,27h-6.68V24a9.92,9.92,0,0,1-3,2.66,8.1,8.1,0,0,1-3.73.79,6.1,6.1,0,0,1-4.64-1.77q-1.67-1.77-1.67-5.44V8.34h7.19V18.6a3.75,3.75,0,0,0,.65,2.5,2.3,2.3,0,0,0,1.82.74,2.59,2.59,0,0,0,2.1-1,5.62,5.62,0,0,0,.82-3.53v-9h7.16Z"/><path class="cls-1" d="M108.74,43.17a8.46,8.46,0,0,1-1.11,4.37,1.5,1.5,0,0,1-1.33.75,4.86,4.86,0,0,1-2-.62,3.59,3.59,0,0,1,0-1.31A4.1,4.1,0,0,0,106,47a.82.82,0,0,0,.8-.5,7,7,0,0,0,.76-3.26c0-1-.45-1.36-1.22-1.36a6.91,6.91,0,0,0-1.18.16,51.47,51.47,0,0,1-2.63,6.33,3.19,3.19,0,0,1-1.19-.6,31.57,31.57,0,0,0,2.51-5.48c-.67.12-1.42.25-2.12.31a3.64,3.64,0,0,1-.29-1.23,8.35,8.35,0,0,0,1.38,0c.38,0,.89-.11,1.43-.19a20.8,20.8,0,0,0,.62-2.56,4,4,0,0,1,1.3.47c-.15.44-.36,1.08-.63,1.89a9.92,9.92,0,0,1,1.15-.1A2,2,0,0,1,108.74,43.17Zm3.54.62a2.4,2.4,0,0,1-1.07.69A12.37,12.37,0,0,0,109,40.64a3.42,3.42,0,0,1,1-.55A14.18,14.18,0,0,1,112.28,43.79Z"/><path class="cls-1" d="M146,44.07A4.17,4.17,0,0,1,142,48.39a3.87,3.87,0,0,1-.76-1.13c2.2,0,3.46-1.19,3.46-3.22a2.64,2.64,0,0,0-2.51-2.72A16.43,16.43,0,0,1,140.86,45c-.12.23-.24.45-.38.67a7.31,7.31,0,0,0,.52.59,2.64,2.64,0,0,1-.82.88l-.39-.45a2.39,2.39,0,0,1-1.85,1.07,2.22,2.22,0,0,1-2-2.39A4.73,4.73,0,0,1,137.5,42c-.1-.28-.19-.56-.28-.85a11,11,0,0,0-.39-1.13A2.86,2.86,0,0,1,138,39.5c.1.51.27,1.14.46,1.79a6.46,6.46,0,0,1,2.8-1c0-.22.07-.46.09-.7a6.15,6.15,0,0,0,.05-1.13,3.2,3.2,0,0,1,1.31.32c-.06.51-.14,1-.25,1.51A3.71,3.71,0,0,1,146,44.07Zm-6.83,1.72c-.1-.16-.21-.33-.3-.51a17.48,17.48,0,0,1-.91-2.1,3.67,3.67,0,0,0-.86,2.11c0,.6.34,1.28.94,1.28A1.54,1.54,0,0,0,139.12,45.79Zm.76-1.28A12.44,12.44,0,0,0,141,41.36a4.73,4.73,0,0,0-2.25,1,15.58,15.58,0,0,0,.83,2l.19.34Z"/><path class="cls-1" d="M172.69,44.33a5.67,5.67,0,0,1,3.87-1.63,2.59,2.59,0,0,1,2.89,2.58c0,2.65-2.85,3.62-5.32,3.47a3.23,3.23,0,0,1-.4-1.25c2.73.28,4.49-.67,4.49-2.25,0-.84-.66-1.46-1.76-1.46a4.82,4.82,0,0,0-3.63,1.8,5.12,5.12,0,0,0-.4.59,4.15,4.15,0,0,1-1-.55c.1-.71.28-4.8.28-5.26a6.74,6.74,0,0,1,1.24.22C172.84,41.28,172.71,43.69,172.69,44.33Zm.17-6.08a33.08,33.08,0,0,0,3.81,1,3.13,3.13,0,0,1-.37,1.09,38.3,38.3,0,0,1-3.81-1.06A5,5,0,0,1,172.86,38.25Z"/><path class="cls-1" d="M205.75,48.09c-.21.29-.35.26-.64.09a4.9,4.9,0,0,1-1.26-1.3,3.78,3.78,0,0,1,.69-1,2.73,2.73,0,0,0,.6.79c.13.1.19.07.28,0,.25-.3.75-1,1.2-1.5a3.35,3.35,0,0,1,.79.81C206.86,46.61,206.19,47.54,205.75,48.09Zm1.93-1.36a3.6,3.6,0,0,0,1.66.44.83.83,0,0,0,.92-.74c.2-1-.72-1.81-1.48-2.65a8,8,0,0,1-.83-1,3.28,3.28,0,0,1,.91-.79,13.62,13.62,0,0,0,.85,1.12c1,1.18,2,2.08,1.81,3.5a1.83,1.83,0,0,1-2,1.79,5.24,5.24,0,0,1-1.75-.32A2.56,2.56,0,0,1,207.68,46.73Zm2.87-5.54a14.72,14.72,0,0,0-2.83-1.82,4.11,4.11,0,0,1,.73-1,15,15,0,0,1,2.82,1.78A2.94,2.94,0,0,1,210.55,41.19Zm3.24.21a1.9,1.9,0,0,1-.7.33,11.83,11.83,0,0,0-.82-1.58,3.37,3.37,0,0,1,.67-.32A10,10,0,0,1,213.79,41.4Zm.37,6.34a8,8,0,0,0-1.69-3.54,3,3,0,0,1,1-.56,9.51,9.51,0,0,1,1.81,3.55A2.39,2.39,0,0,1,214.16,47.74Zm1-7a2.55,2.55,0,0,1-.68.36,14.5,14.5,0,0,0-.85-1.56,3.19,3.19,0,0,1,.67-.33A10.49,10.49,0,0,1,215.19,40.77Z"/><path class="cls-2" d="M43.93,8.67l-15.64,9,4.28,2.48.2.12L49.51,30A25.05,25.05,0,0,0,43.93,8.67ZM25,0a25.59,25.59,0,0,0-4.69.44V18.5L41.54,6.26A24.9,24.9,0,0,0,25,0ZM17,1.3A25,25,0,0,0,1.39,16.78l15.64,9Zm1.43,29.12h0L.49,20.05A25.72,25.72,0,0,0,0,25,25,25,0,0,0,6.08,41.34l15.64-9ZM25,50a25.59,25.59,0,0,0,4.69-.44V31.5L8.47,43.75A24.91,24.91,0,0,0,25,50Zm8-20.86V48.7A25,25,0,0,0,48.62,33.22L33,24.19v4.95Z"/></g></g></svg>